<svg width="16" height="16" viewBox="0 0 16 16" fill="none" xmlns="http://www.w3.org/2000/svg">
<path d="M14.0283 4.17936L7.99938 10.5553L1.97051 4.17936C1.8628 4.06521 1.7182 4.00131 1.56762 4.00131C1.41705 4.00131 1.27245 4.06521 1.16473 4.17936C1.11258 4.2348 1.07114 4.30098 1.04286 4.37401C1.01457 4.44704 1 4.52546 1 4.60468C1 4.6839 1.01457 4.76232 1.04286 4.83536C1.07114 4.90839 1.11258 4.97456 1.16473 5.03L7.5784 11.8142C7.69103 11.9333 7.8421 12 7.99938 12C8.15667 12 8.30773 11.9333 8.42037 11.8142L14.834 5.03131C14.8866 4.97583 14.9283 4.90949 14.9568 4.83622C14.9853 4.76294 15 4.68422 15 4.60468C15 4.52515 14.9853 4.44642 14.9568 4.37314C14.9283 4.29987 14.8866 4.23353 14.834 4.17805C14.7263 4.0639 14.5817 4 14.4311 4C14.2806 4 14.136 4.0639 14.0283 4.17805V4.17936Z" fill="#363431"/>
</svg>
