<svg width="10" height="7" viewBox="0 0 10 7" fill="none" xmlns="http://www.w3.org/2000/svg">
<path d="M9.6495 0.546831C9.62283 0.477944 9.58286 0.414985 9.53185 0.361548C9.42885 0.253666 9.28711 0.191115 9.13799 0.187652C8.98887 0.184188 8.84448 0.240096 8.73657 0.343079L3.62504 5.22239L1.26329 2.96808C1.15504 2.86694 1.01126 2.81259 0.86318 2.81683C0.715096 2.82106 0.574662 2.88355 0.472374 2.99071C0.370086 3.09788 0.314205 3.24107 0.316863 3.38919C0.319522 3.53731 0.380507 3.6784 0.486574 3.78183L3.23664 6.40683C3.34127 6.50669 3.48035 6.56241 3.625 6.56241C3.76964 6.56241 3.90872 6.50669 4.01335 6.40683L9.51329 1.15683C9.56673 1.10583 9.6096 1.0448 9.63945 0.977235C9.66931 0.909667 9.68556 0.836881 9.68728 0.763033C9.68901 0.689184 9.67617 0.615718 9.6495 0.546831Z" fill="white"/>
</svg>
