<svg width="24" height="24" viewBox="0 0 24 24" fill="none" xmlns="http://www.w3.org/2000/svg">
<path d="M15.249 16.1115L16.929 14.4315C17.1539 14.2066 17.4398 14.0526 17.7514 13.9886C18.063 13.9246 18.3865 13.9534 18.6818 14.0715L20.7278 14.8905C21.0293 15.0112 21.2878 15.2194 21.4699 15.4884C21.652 15.7573 21.7493 16.0747 21.7493 16.3995V20.1203C21.7498 20.3414 21.7052 20.5603 21.6182 20.7636C21.5312 20.9669 21.4036 21.1504 21.2432 21.3026C21.0829 21.4549 20.8931 21.5729 20.6856 21.6493C20.478 21.7257 20.2571 21.7589 20.0363 21.747C5.69478 20.8545 2.79828 8.70751 2.26053 4.05601C2.23449 3.8286 2.25688 3.59826 2.32624 3.38013C2.3956 3.16201 2.51036 2.96104 2.66296 2.79044C2.81556 2.61984 3.00255 2.48349 3.21163 2.39034C3.42071 2.29719 3.64714 2.24937 3.87603 2.25001H7.53078C7.85558 2.25 8.17294 2.3473 8.44191 2.52938C8.71088 2.71146 8.91912 2.96995 9.03978 3.27151L9.85803 5.31751C9.97612 5.61284 10.0049 5.93632 9.94096 6.24788C9.87697 6.55944 9.72296 6.84538 9.49803 7.07026L7.81803 8.75026C7.81803 8.75026 8.74953 15.2993 15.249 16.1115Z" fill="#363431"/>
</svg>
